<svg t="1760683362520" class="icon" viewBox="0 0 1024 1024" version="1.1" xmlns="http://www.w3.org/2000/svg"
  p-id="46677" width="48" height="48">
  <path
    d="M384.4 34.6c-8.8 2.8-23 15.6-27.6 24.8-3.4 6.8-4 14-4.8 62.6l-1 55-16.8 1.6c-40.8 3.6-82 15.8-120.2 35.6-32 16.6-57.2 35-83 60.8-51.2 51.2-82.2 112-95.4 187-3.8 21.8-3.2 82.2 1.2 105.4 3.8 20.6 12.6 52 19.2 68.6 8.2 20.6 26 53 39.6 72 17.2 24.4 52.2 59.2 76.4 76.4 48.2 34.2 106.6 56 163.2 61.2l15.8 1.4 1 55c0.8 48.6 1.4 55.8 4.8 62.6 4.8 9.8 19 22 28.8 25 11.6 3.4 561.4 3.4 573.2 0 11-3.2 27.6-19.8 30.8-30.8 1.8-6.4 2.4-93 2.4-375V217l-92.6-92.4L807 32l-208 0.2c-139.6 0.2-210.2 1-214.6 2.4zM784 131.2c0 47 0.8 69.8 2.4 75.6 3.2 11 19.8 27.6 30.8 30.8 5.8 1.6 28.6 2.4 75.6 2.4H960v710.2l-5 4.8-4.8 5H393.8l-5-5-4.8-4.8 0.4-51.6 0.6-51.6 17-1.4c36.6-3 80.2-15.6 115.8-33.6 102.4-51.2 171-150 184.2-265 3.4-30.4 2.8-40.4-3-46l-4.8-5H384V73.8l5-4.8 4.8-5H784v67.2z m93 16.8l60 60h-111.2l-4.8-5-5-4.8V143c0-30.2 0.2-55 0.6-55 0.2 0 27.4 27 60.4 60zM352 356.6v148.4L247 610 142 715l-6-7c-31-36-55.2-86.6-66.2-138-6-27.8-6.6-83.6-1.2-111 13-65.8 42.4-120.6 88.6-165.2 50-48 115.4-78.4 181.8-84.4 4.4-0.4 9.2-0.8 10.6-1 1.8-0.4 2.4 30.4 2.4 148.2z m319 181.8c-5 42.4-14 73.8-31.2 108.6-29.4 59.8-77 107.4-136.8 136.8-47 23.2-81.6 31.2-136 31-39.8 0-61.2-3.4-95.8-15-32.6-10.8-77.4-36.2-99-56l-6.8-6.2 104.8-104.8 104.8-104.8h297.2l-1.2 10.4z"
    fill="#01c3a3" p-id="46678"></path>
  <path
    d="M421 117l-5 4.8v332.4l5 4.8 4.8 5h332.4l5.2-5.2c5.2-5.2 5.2-5.4 3.8-27.6-3.6-63-21.6-117.6-55.8-169.2-55.2-83.2-143.8-136.8-243.8-147.8-31.8-3.6-41-3-46.6 2.8zM486 149.4c55.4 9 110.8 37 153.2 77.2 55.8 52.8 87.8 118 95.6 194.8l1 10.6H448V144l9.6 1.2c5.2 0.6 18 2.4 28.4 4.2zM800 320v16h128v-32h-128v16zM800 416v16h128v-32h-128v16zM800 512v16h128v-32h-128v16zM756 642.8c-31 6.8-51.2 17.8-74 41-13.4 13.4-19 21-25.6 34.2-12.4 25-15.4 38.4-15.2 68 0.2 21.4 1 27.4 5.4 41 7.6 23 18 39.8 36.4 58 18.6 18.6 32 27 56.4 35.6 16 5.6 20 6.2 42.6 6.2 29.6 0.2 43.2-2.8 67.6-15.2 50.2-25 81.8-81 77.8-137.8-2.6-35.4-16.2-64.6-42.4-90.8-27.8-27.8-56.6-40.6-95-42-13.4-0.6-25.6 0.2-34 1.8z m64.2 35.6c29.8 11 50.8 29.4 63.8 56.4 30.2 62.8-0.6 133.6-68 156.4-16.2 5.6-50.8 5-66.8-0.8-35.8-13-60.2-38.2-72.4-74.4-2.8-8-3.8-16.8-3.8-32 0-31.6 10-56.4 31.2-78 16-16.2 36-27.2 58.8-32.2 14-3 42.6-0.6 57.2 4.6z"
    fill="#01c3a3" p-id="46679"></path>
  <path
    d="M793.6 767.4L752 809l-17.6-17.6c-9.6-9.6-18.4-17.4-19.6-17.4-2.6 0-20.8 18.6-20.8 21.2 0 1 11.6 13.4 25.6 27.4 22.8 22.4 26.6 25.4 32.4 25.4 6.2 0 11.2-4.4 56.4-49.4 27.2-27.2 49.6-50.4 49.6-51.6 0-2.6-18.4-21-21-21-1.2 0-20.6 18.6-43.4 41.4z"
    fill="#01c3a3" p-id="46680"></path>
</svg>